<svg xmlns="http://www.w3.org/2000/svg" xmlns:xlink="http://www.w3.org/1999/xlink" width="1366" zoomAndPan="magnify" viewBox="0 0 1024.5 576" height="768" preserveAspectRatio="xMidYMid meet" version="1.2"><defs><clipPath id="e0ec4e2386"><path d="M 897 108 L 1024 108 L 1024 114 L 897 114 Z M 897 108 "/></clipPath></defs><g id="68b5569cf3"><path style="fill:none;stroke-width:7;stroke-linecap:butt;stroke-linejoin:miter;stroke:#000000;stroke-opacity:1;stroke-miterlimit:4;" d="M 26.250984 3.498514 L 371.408951 3.498514 " transform="matrix(0.749634,0.000000000000000214,-0.000000000000000214,0.749634,82.614336,499.86177)"/><path style="fill-rule:nonzero;fill:#000000;fill-opacity:1;stroke-width:7;stroke-linecap:round;stroke-linejoin:round;stroke:#000000;stroke-opacity:1;stroke-miterlimit:4;" d="M 3.500302 3.498514 C 3.500302 -2.30119 8.200511 -7.0014 14.000216 -7.0014 C 19.79992 -7.0014 24.50013 -2.30119 24.50013 3.498514 C 24.50013 9.298218 19.79992 13.998428 14.000216 13.998428 C 8.200511 13.998428 3.500302 9.298218 3.500302 3.498514 " transform="matrix(0.749634,0.000000000000000214,-0.000000000000000214,0.749634,82.614336,499.86177)"/><path style="fill-rule:nonzero;fill:#000000;fill-opacity:1;stroke-width:7;stroke-linecap:round;stroke-linejoin:round;stroke:#000000;stroke-opacity:1;stroke-miterlimit:4;" d="M 394.159634 3.498514 C 394.159634 9.298218 389.459424 13.998428 383.65972 13.998428 C 377.860015 13.998428 373.159806 9.298218 373.159806 3.498514 C 373.159806 -2.30119 377.860015 -7.0014 383.65972 -7.0014 C 389.459424 -7.0014 394.159634 -2.30119 394.159634 3.498514 " transform="matrix(0.749634,0.000000000000000214,-0.000000000000000214,0.749634,82.614336,499.86177)"/><path style="fill:none;stroke-width:7;stroke-linecap:butt;stroke-linejoin:miter;stroke:#000000;stroke-opacity:1;stroke-miterlimit:4;" d="M 26.249191 3.498514 L 202.553951 3.498514 " transform="matrix(0.749634,-0.000000000000000372,0.000000000000000372,0.749634,359.713336,499.86177)"/><path style="fill-rule:nonzero;fill:#000000;fill-opacity:1;stroke-width:7;stroke-linecap:round;stroke-linejoin:round;stroke:#000000;stroke-opacity:1;stroke-miterlimit:4;" d="M 3.498509 3.498514 C 3.498509 -2.30119 8.198719 -7.0014 13.998423 -7.0014 C 19.798127 -7.0014 24.498337 -2.30119 24.498337 3.498514 C 24.498337 9.298218 19.798127 13.998428 13.998423 13.998428 C 8.198719 13.998428 3.498509 9.298218 3.498509 3.498514 " transform="matrix(0.749634,-0.000000000000000372,0.000000000000000372,0.749634,359.713336,499.86177)"/><path style="fill-rule:nonzero;fill:#000000;fill-opacity:1;stroke-width:7;stroke-linecap:round;stroke-linejoin:round;stroke:#000000;stroke-opacity:1;stroke-miterlimit:4;" d="M 225.304633 3.498514 C 225.304633 9.298218 220.604423 13.998428 214.804719 13.998428 C 209.005015 13.998428 204.304805 9.298218 204.304805 3.498514 C 204.304805 -2.30119 209.005015 -7.0014 214.804719 -7.0014 C 220.604423 -7.0014 225.304633 -2.30119 225.304633 3.498514 " transform="matrix(0.749634,-0.000000000000000372,0.000000000000000372,0.749634,359.713336,499.86177)"/><path style="fill:none;stroke-width:7;stroke-linecap:butt;stroke-linejoin:miter;stroke:#000000;stroke-opacity:1;stroke-miterlimit:4;" d="M 26.247476 3.499768 L 489.841258 3.500806 " transform="matrix(0.322193,-0.676863,0.676863,0.322193,515.87752,511.443029)"/><path style="fill-rule:nonzero;fill:#000000;fill-opacity:1;stroke-width:7;stroke-linecap:round;stroke-linejoin:round;stroke:#000000;stroke-opacity:1;stroke-miterlimit:4;" d="M 3.498714 3.501773 C 3.50159 -2.299561 8.200707 -7.000646 13.999802 -7.002475 C 19.801137 -6.999599 24.497517 -2.298242 24.499346 3.500853 C 24.501175 9.299948 19.802058 14.001033 14.000723 13.998157 C 8.201628 13.999986 3.500543 9.300869 3.498714 3.501773 " transform="matrix(0.322193,-0.676863,0.676863,0.322193,515.87752,511.443029)"/><path style="fill:none;stroke-width:7;stroke-linecap:butt;stroke-linejoin:miter;stroke:#000000;stroke-opacity:1;stroke-miterlimit:4;" d="M -0.00075236 3.497191 L 273.526841 3.498927 " transform="matrix(-0.258505,-0.703652,0.703652,-0.258505,751.097593,381.501168)"/><path style="fill-rule:nonzero;fill:#000000;fill-opacity:1;stroke-width:7;stroke-linecap:round;stroke-linejoin:round;stroke:#000000;stroke-opacity:1;stroke-miterlimit:4;" d="M 296.275538 3.501408 C 296.277785 9.297888 291.575236 13.998797 285.778757 14.001044 C 279.977386 14.001494 275.276477 9.298946 275.276027 3.497575 C 275.278671 -2.297108 279.976328 -6.999814 285.777699 -7.000264 C 291.57907 -7.000714 296.275088 -2.299962 296.275538 3.501408 " transform="matrix(-0.258505,-0.703652,0.703652,-0.258505,751.097593,381.501168)"/><path style="fill:none;stroke-width:7;stroke-linecap:butt;stroke-linejoin:miter;stroke:#000000;stroke-opacity:1;stroke-miterlimit:4;" d="M -0.0000195474 3.499563 L 393.333309 3.501302 " transform="matrix(-0.336832,0.669698,-0.669698,-0.336832,894.238176,112.010808)"/><path style="fill-rule:nonzero;fill:#000000;fill-opacity:1;stroke-width:7;stroke-linecap:round;stroke-linejoin:round;stroke:#000000;stroke-opacity:1;stroke-miterlimit:4;" d="M 416.08015 3.498763 C 416.082224 9.301407 411.381306 13.998922 405.583317 13.998655 C 399.780674 14.000729 395.083159 9.299811 395.083426 3.501823 C 395.081352 -2.300821 399.78227 -6.998336 405.580258 -6.998069 C 411.382901 -7.000143 416.080417 -2.299225 416.08015 3.498763 " transform="matrix(-0.336832,0.669698,-0.669698,-0.336832,894.238176,112.010808)"/><g clip-rule="nonzero" clip-path="url(#e0ec4e2386)"><path style="fill:none;stroke-width:7;stroke-linecap:butt;stroke-linejoin:miter;stroke:#000000;stroke-opacity:1;stroke-miterlimit:4;" d="M -0.0024298 3.498143 L 165.401178 3.498143 " transform="matrix(-0.749634,0,0,-0.749634,1023.990366,113.454359)"/></g><path style="fill-rule:nonzero;fill:#000000;fill-opacity:1;stroke-width:7;stroke-linecap:round;stroke-linejoin:round;stroke:#000000;stroke-opacity:1;stroke-miterlimit:4;" d="M 188.151861 3.498143 C 188.151861 9.297847 183.451651 13.998057 177.651947 13.998057 C 171.852242 13.998057 167.152033 9.297847 167.152033 3.498143 C 167.152033 -2.301561 171.852242 -7.001771 177.651947 -7.001771 C 183.451651 -7.001771 188.151861 -2.301561 188.151861 3.498143 " transform="matrix(-0.749634,0,0,-0.749634,1023.990366,113.454359)"/></g></svg>